<svg width="126" height="101" viewBox="0 0 126 101" fill="none" xmlns="http://www.w3.org/2000/svg">
<path d="M26.125 0C18.948 0 13.639 6.284 13.876 13.099C14.104 19.645 13.808 28.125 11.673 35.039C9.533 41.975 5.913 46.358 0 46.922V53.309C5.913 53.872 9.533 58.256 11.673 65.192C13.808 72.106 14.103 80.586 13.876 87.132C13.638 93.947 18.948 100.23 26.125 100.23H99.665C106.842 100.23 112.151 93.946 111.914 87.132C111.686 80.586 111.982 72.106 114.116 65.192C116.256 58.257 119.867 53.873 125.78 53.309V46.922C119.867 46.359 116.257 41.975 114.116 35.039C111.982 28.125 111.686 19.645 111.914 13.099C112.151 6.284 106.842 0 99.664 0H26.125ZM84.239 61.686C84.239 71.07 77.237 76.759 65.618 76.759H44.196C44.0658 76.759 43.9409 76.7073 43.8488 76.6152C43.7567 76.5231 43.705 76.3982 43.705 76.268V23.942C43.7049 23.8774 43.7175 23.8135 43.7421 23.7538C43.7667 23.6941 43.8028 23.6399 43.8485 23.5942C43.8941 23.5485 43.9482 23.5122 44.0079 23.4875C44.0675 23.4627 44.1314 23.45 44.196 23.45H65.505C75.194 23.45 81.552 28.696 81.552 36.75C81.552 42.403 77.275 47.463 71.825 48.35V48.646C79.243 49.459 84.239 54.594 84.239 61.686ZM63.461 30.211H52.183V46.133H61.683C69.025 46.133 73.074 43.178 73.074 37.895C73.074 32.945 69.593 30.211 63.461 30.211ZM52.183 52.451V69.999H63.878C71.523 69.999 75.573 66.933 75.573 61.169C75.573 55.406 71.41 52.451 63.386 52.451H52.183Z" fill="#1F1F1F"/>
</svg>
