<svg width="128" height="128" viewBox="0 0 128 128" fill="none" xmlns="http://www.w3.org/2000/svg">
<path d="M19.5884 26L27.6239 116.493L63.6797 126.543L99.836 116.48L107.88 26H19.5884ZM88.5112 76.488L86.171 98.38L86.1799 100.255L63.7344 106.55V106.551L63.7165 106.566L41.0918 100.341L39.5612 83H50.6559L51.4427 91.766L63.7384 95.061L63.7344 95.076V95.044L76.077 91.549L77.3796 77H51.5801L51.359 74.645L50.8551 68.998L50.5912 66H78.3615L79.3713 55H37.0745L36.8524 52.411L36.3485 46.381L36.0846 43H91.451L91.1851 46.334L88.5112 76.488ZM88.6307 14.374L81.5114 6H88.6307V1H72.6971V5.363L81.0523 13H72.6971V18H88.6307V14.374ZM69.7095 14.374L62.9308 6H69.7095V1H54.7718V5.363L62.4727 13H54.7718V18H69.7095V14.374ZM51.7842 13H43.8174V6H51.7842V1H37.8423V18H51.7842V13Z" fill="#1F1F1F"/>
</svg>
