<svg width="45" height="32" viewBox="0 0 45 32" fill="none" xmlns="http://www.w3.org/2000/svg">
<g clip-path="url(#clip0_6115_137)">
<path d="M38.9112 11.5676C38.6755 9.83819 37.7324 8.33657 36.0308 6.97994L35.0468 6.3068L34.3907 7.31133C33.5502 8.60583 33.1299 10.4078 33.2632 12.1372C33.3247 12.7379 33.5194 13.8356 34.1242 14.778C33.5194 15.1197 32.3201 15.5754 30.721 15.5443H0.17434L0.112837 15.9068C-0.174179 17.6362 -0.174179 23.0524 3.25976 27.2052C5.87366 30.3638 9.77912 31.9689 14.8839 31.9689C25.9545 31.9689 34.1345 26.7599 37.9784 17.2738C39.4853 17.3049 42.7347 17.2841 44.4055 14.022C44.4465 13.9495 44.5491 13.7528 44.8361 13.1314L45.0001 12.7896L44.0673 12.1476C43.0422 11.4744 40.7153 11.2155 38.9112 11.5676ZM24.6014 0H19.9579V4.31845H24.6014V0ZM24.6014 5.18835H19.9579V9.5068H24.6014V5.18835ZM19.1071 5.18835H14.4636V9.5068H19.1071V5.18835ZM13.6231 5.18835H8.97958V9.5068H13.6231V5.18835ZM8.12878 10.3767H3.48527V14.6951H8.12878V10.3767ZM13.6231 10.3767H8.97958V14.6951H13.6231V10.3767ZM19.1071 10.3767H14.4636V14.6951H19.1071V10.3767ZM24.6014 10.3767H19.9579V14.6951H24.6014V10.3767ZM30.0958 10.3767H25.4522V14.6951H30.0958V10.3767Z" fill="#1F1F1F"/>
</g>
<defs>
<clipPath id="clip0_6115_137">
<rect width="45" height="32" fill="white"/>
</clipPath>
</defs>
</svg>
