<svg width="32" height="32" viewBox="0 0 32 32" fill="none" xmlns="http://www.w3.org/2000/svg">
<g clip-path="url(#clip0_6115_133)">
<path d="M31.9371 18.115L30.1501 12.604L26.5981 1.68299C26.5588 1.56056 26.4817 1.45375 26.3778 1.37798C26.2739 1.3022 26.1487 1.26137 26.0201 1.26137C25.8915 1.26137 25.7663 1.3022 25.6624 1.37798C25.5585 1.45375 25.4814 1.56056 25.4421 1.68299L21.8901 12.599H10.1091L6.55711 1.68299C6.37411 1.11999 5.57811 1.11999 5.40111 1.68299L1.84911 12.599L0.0571093 18.115C-0.103891 18.615 0.0781093 19.167 0.500109 19.479L16.0001 30.74L31.5001 19.479C31.9211 19.167 32.1041 18.62 31.9371 18.115Z" fill="#1F1F1F"/>
</g>
<defs>
<clipPath id="clip0_6115_133">
<rect width="32" height="32" fill="white"/>
</clipPath>
</defs>
</svg>
