<svg width="128" height="128" viewBox="0 0 128 128" fill="none" xmlns="http://www.w3.org/2000/svg">
<path d="M19.5693 27L27.6563 116.919L63.9453 126.601L100.335 117.102L108.431 27H19.5693ZM91.6103 47.471L91.1033 53.305L90.8803 56H48.3113L49.3283 68H89.8683L89.5973 70.231L86.9823 99.14L86.7903 100.83L64.0003 106.964V106.959L63.9733 106.971L41.1963 101.055L39.6503 84H50.8183L51.6093 92.46L63.9943 95.599L64.0003 95.365V95.377L76.4123 92.728L77.7083 79H39.1533L36.4193 48.164L36.1523 45H91.8763L91.6103 47.471ZM27.9563 1.62695H33.5783V7.18295H38.7223V1.62695H44.3453V18.449H38.7223V12.816H33.5793V18.449H27.9563V1.62695ZM51.7383 7.20595H46.7883V1.62695H62.3133V7.20595H57.3613V18.449H51.7383V7.20595ZM64.7773 1.62695H70.6393L74.2463 7.53795L77.8493 1.62695H83.7143V18.449H78.1133V10.111L74.2463 16.092H74.1483L70.2783 10.111V18.449H64.7763V1.62695H64.7773ZM86.5133 1.62695H92.1373V12.889H100.044V18.45H86.5133V1.62695Z" fill="#1F1F1F"/>
</svg>
