<svg width="128" height="128" viewBox="0 0 128 128" fill="none" xmlns="http://www.w3.org/2000/svg">
<path d="M21.9059 5.48389L4.96094 51.8479L16.4109 55.6779L6.27594 74.4339L23.4899 88.0269L21.9059 93.3319L14.3979 119.625L50.2499 106.668L74.7999 122.518L119.883 104.461L121.988 36.6799L101.07 57.0859V101.07H26.9299V26.9299H101.07V57.0819L121.988 36.6799L85.1759 7.39789L71.0369 23.2949L60.2069 10.0079L21.9059 5.48389ZM27.9299 27.9299V100.07H100.07V27.9299H27.9299ZM66.8049 36.5699H72.8979V54.4299C72.9251 55.876 72.699 57.3157 72.2299 58.6839C71.8287 59.8215 71.1729 60.8524 70.3126 61.6979C69.4523 62.5435 68.4103 63.1814 67.2659 63.5629C65.9661 64.0008 64.6014 64.2145 63.2299 64.1949L63.3159 64.2419C61.4571 64.3031 59.6139 63.8832 57.9649 63.0229C56.6092 62.2956 55.402 61.3204 54.4059 60.1479L58.1719 55.9409C58.8589 56.7189 59.6559 57.3909 60.5389 57.9409C61.3251 58.4293 62.2345 58.6826 63.1599 58.6709C63.6545 58.6957 64.1485 58.6141 64.6088 58.4316C65.0691 58.2491 65.4848 57.9699 65.8279 57.6129C66.5627 56.6205 66.9101 55.3942 66.8049 54.1639V36.5699ZM36.5979 36.5979H50.2379V41.5939H46.4219V58.8549H50.2379V63.8549H36.5979V58.8549H40.4219V41.5939H36.5979V36.5979ZM36.5469 86.7459H63.9769V91.3199H36.5469V86.7459Z" fill="#1F1F1F"/>
</svg>
