<svg width="32" height="32" viewBox="0 0 32 32" fill="none" xmlns="http://www.w3.org/2000/svg">
<g clip-path="url(#clip0_6061_454)">
<path d="M16.0416 0.54773C12.2158 0.47473 8.56657 1.48423 5.44407 4.37098C-1.09018 10.4145 -1.28468 20.762 5.02657 27.0285C6.16257 28.1565 7.51457 29.2 8.99907 29.8355C9.38682 28.5317 9.31132 26.9577 9.18857 25.4105C9.15907 25.38 9.12857 25.3497 9.10607 25.316C8.69132 24.6977 8.99907 23.0837 8.99907 22.3495C11.6081 22.812 13.7331 24.247 16.5261 23.4135C19.2593 22.5977 20.3986 18.656 17.9888 16.79C16.5336 15.6625 14.3746 15.8162 12.6583 16.023C11.6276 16.1475 10.3406 16.528 9.62907 15.4317C9.20907 14.7865 9.64257 13.2027 9.71307 12.4727C9.73057 12.2887 9.74982 12.1012 9.76807 11.9165C9.95082 9.64948 10.2541 7.35798 10.2541 5.08973H21.3351V1.24373C19.5561 0.83748 17.7806 0.58148 16.0416 0.54773Z" fill="#5D5D5D"/>
<path d="M21.2454 1.23682V8.00682H13.1822L12.7632 13.2136C14.5524 13.0733 16.2112 12.7576 17.9992 13.1778C19.2249 13.4666 20.3754 14.0453 21.2267 14.9846C23.6024 17.6026 23.1349 22.5171 20.4074 24.7251C19.6399 25.3466 18.7629 25.7548 17.8369 26.0173C16.9819 26.2906 16.1229 26.4063 15.2609 26.4143C14.9522 26.4311 14.6431 26.4397 14.3339 26.4403C12.9914 26.4403 11.6487 26.2658 10.3547 25.9038C10.0257 25.8116 9.51667 25.6833 9.19667 25.4438C9.12892 25.4293 9.06092 25.4136 8.99317 25.3988L8.88892 29.7731C17.1989 34.1796 27.7852 29.4648 30.7659 20.8168C33.2857 13.5086 29.3834 3.15507 21.2454 1.23682Z" fill="#1B1B1B"/>
</g>
<defs>
<clipPath id="clip0_6061_454">
<rect width="32" height="32" fill="white"/>
</clipPath>
</defs>
</svg>
