<svg width="122" height="128" viewBox="0 0 122 128" fill="none" xmlns="http://www.w3.org/2000/svg">
<g clip-path="url(#clip0_6016_829)">
<path fill-rule="evenodd" clip-rule="evenodd" d="M121.087 28.4649C121.132 28.6327 121.155 28.8056 121.156 28.9794V55.9874C121.156 56.334 121.065 56.6745 120.893 56.9745C120.721 57.2744 120.473 57.5232 120.175 57.6957L97.7049 70.7468V96.6151C97.7049 97.3191 97.334 97.9689 96.7289 98.3234L49.8248 125.563C49.7174 125.624 49.6003 125.664 49.4832 125.706C49.4393 125.72 49.3978 125.747 49.3514 125.76C49.0236 125.847 48.6789 125.847 48.351 125.76C48.2974 125.745 48.2486 125.715 48.1973 125.696C48.09 125.656 47.9777 125.622 47.8752 125.563L0.98088 98.3234C0.682974 98.1507 0.435444 97.9019 0.263238 97.602C0.0910325 97.3021 0.000236044 96.9617 0 96.6151L0 15.5911C0 15.4138 0.0244 15.2415 0.06832 15.0741C0.08296 15.0175 0.11712 14.9658 0.13664 14.9092C0.17324 14.8058 0.2074 14.7 0.26108 14.604C0.29768 14.54 0.35136 14.4883 0.39528 14.4292C0.4514 14.3505 0.50264 14.2692 0.56852 14.2003C0.62464 14.1437 0.69784 14.1018 0.76128 14.0526C0.83204 13.9935 0.89548 13.9295 0.976 13.8828L24.4268 0.263068C24.7237 0.0907121 25.0603 0 25.4028 0C25.7454 0 26.0819 0.0907121 26.3788 0.263068L49.8272 13.8828H49.8321C49.9102 13.932 49.9761 13.9935 50.0468 14.0501C50.1103 14.0994 50.181 14.1437 50.2372 14.1978C50.3055 14.2692 50.3543 14.3505 50.4128 14.4292C50.4543 14.4883 50.5104 14.54 50.5446 14.604C50.6007 14.7025 50.6324 14.8058 50.6715 14.9092C50.691 14.9658 50.7252 15.0175 50.7398 15.0766C50.7847 15.2444 50.8077 15.4173 50.8081 15.5911V66.1978L70.3476 54.8477V28.9769C70.3476 28.8046 70.372 28.6298 70.416 28.4649C70.433 28.4058 70.4648 28.3541 70.4843 28.2975C70.5233 28.1941 70.5575 28.0883 70.6112 27.9923C70.6478 27.9283 70.7014 27.8766 70.7429 27.8175C70.8015 27.7388 70.8503 27.6575 70.9186 27.5886C70.9747 27.532 71.0455 27.4901 71.1089 27.4409C71.1821 27.3818 71.2456 27.3178 71.3236 27.2711L94.7769 13.6514C95.0737 13.4788 95.4103 13.3879 95.7529 13.3879C96.0955 13.3879 96.4321 13.4788 96.7289 13.6514L120.177 27.2711C120.26 27.3203 120.324 27.3818 120.397 27.4385C120.458 27.4877 120.529 27.532 120.585 27.5861C120.653 27.6575 120.702 27.7388 120.76 27.8175C120.804 27.8766 120.858 27.9283 120.892 27.9923C120.948 28.0883 120.98 28.1941 121.019 28.2975C121.041 28.3541 121.073 28.4058 121.087 28.4649ZM117.247 54.8477V32.3886L109.041 37.1541L97.7049 43.7388V66.1978L117.249 54.8477H117.247ZM93.7985 95.4754V73.0015L82.6477 79.4261L50.8057 97.7597V120.445L93.7985 95.4754ZM3.90888 19.0003V95.4754L46.8968 120.443V97.7621L24.439 84.94L24.4317 84.9351L24.422 84.9301C24.3463 84.8858 24.2829 84.8218 24.2121 84.7677C24.1511 84.7185 24.0804 84.6791 24.0267 84.6249L24.0218 84.6175C23.9584 84.556 23.9144 84.4797 23.8608 84.4108C23.812 84.3443 23.7534 84.2877 23.7144 84.2188L23.7119 84.2114C23.668 84.1375 23.6412 84.0489 23.6094 83.9652C23.5777 83.8914 23.5362 83.8225 23.5167 83.7437C23.4923 83.6501 23.4874 83.5492 23.4777 83.4532C23.4679 83.3794 23.4484 83.3055 23.4484 83.2317V83.2268V30.3505L12.1146 23.7634L3.90888 19.0003ZM25.4053 4.24584L5.8682 15.5911L25.4004 26.9363L44.935 15.5886L25.4004 4.24584H25.4053ZM35.5654 75.0495L46.8992 68.4674V19.0003L38.6935 23.7658L27.3573 30.3505V79.8175L35.5654 75.0495ZM95.7529 17.6341L76.2183 28.9794L95.7529 40.3246L115.285 28.9769L95.7529 17.6341ZM93.7985 43.7388L82.4622 37.1541L74.2565 32.3886V54.8477L85.5903 61.4298L93.7985 66.1978V43.7388ZM48.8488 94.3505L77.5017 77.8483L91.8245 69.6021L72.3045 58.2643L49.8297 71.3178L29.3459 83.2145L48.8488 94.3505Z" fill="#1F1F1F"/>
</g>
<defs>
<clipPath id="clip0_6016_829">
<rect width="122" height="128" fill="white"/>
</clipPath>
</defs>
</svg>
