<svg width="128" height="128" viewBox="0 0 128 128" fill="none" xmlns="http://www.w3.org/2000/svg">
<path d="M64.4299 0C68.5429 0.23 71.8479 0.273 75.1129 0.594C82.7109 1.324 90.1759 2.926 97.2849 5.945C101.395 7.727 105.285 9.875 108.281 13.398C111.273 16.961 111.453 20.621 108.637 24.141C107.5 25.5322 106.194 26.7761 104.75 27.844C100.187 31.274 94.9599 33.195 89.5499 34.75C79.9409 37.445 70.1519 38.316 60.2269 37.813C55.3549 37.582 50.5269 36.805 45.7469 36.074C40.2929 35.25 35.1049 33.559 30.1449 31.184C26.7929 29.629 23.7539 27.707 21.2929 24.964C18.4769 21.902 17.8089 18.656 19.6829 15.41C20.6679 13.672 22.1449 12.117 23.6639 10.836C27.2849 7.773 31.5739 5.809 36.0469 4.434C40.0229 3.246 44.0899 2.285 48.1599 1.37C49.7699 1.003 51.4649 0.866 53.1209 0.73C57.1869 0.41 61.2109 0.183 64.4299 0ZM110.074 67.04C110.121 67.68 110.207 68.137 110.207 68.594V79.199C110.207 83.453 108.422 86.836 105.383 89.579C101.09 93.465 95.9489 95.797 90.5859 97.582C84.5509 99.594 78.4259 101.328 72.3049 103.02C66.5389 104.574 60.6369 105.855 54.8709 107.367C46.7339 109.516 38.6449 111.801 31.0469 115.594C29.5769 116.332 28.1441 117.141 26.7539 118.02C25.9959 118.477 25.3709 118.52 24.6989 117.973C23.3119 116.738 21.7499 115.593 20.4959 114.223C17.4569 110.84 17.6359 106.77 19.5159 102.977C21.5269 98.907 25.0549 96.391 28.8559 94.289C34.5779 91.133 40.7459 89.031 47.0039 87.429C53.4409 85.739 59.9219 84.23 66.4019 82.582C71.4999 81.305 76.5939 80.023 81.6919 78.789C87.5469 77.371 93.3549 75.633 98.8549 73.121C102.117 71.656 105.16 69.691 108.285 67.953C108.688 67.723 109.047 67.449 109.449 67.223C109.582 67.176 109.719 67.13 110.074 67.04ZM110.211 44.543C110.211 46.141 110.164 47.743 110.211 49.343C110.477 54.602 108.02 58.352 104.039 61.277C99.5269 64.57 94.4289 66.625 89.1989 68.273C84.7299 69.691 80.2149 70.969 75.6989 72.16C70.5629 73.484 65.4219 74.582 60.2809 75.816C56.9259 76.641 53.5309 77.465 50.2229 78.332C46.6909 79.246 43.1599 80.207 39.6719 81.305C32.6089 83.543 25.7269 86.242 19.7379 90.812C19.3779 91.09 18.8869 91.18 18.4839 91.363C18.3979 90.906 18.2189 90.449 18.2189 89.945C18.1289 84.047 19.2889 78.515 22.5549 73.575C25.3249 69.371 28.9879 66.215 33.1479 63.609C38.6449 60.179 44.5899 57.711 50.7579 55.926C56.7499 54.191 62.8279 52.59 68.8629 51.036C75.1209 49.391 81.4689 47.973 87.7269 46.281C93.8469 44.633 99.9299 42.805 105.426 39.511C106.59 38.828 107.66 38.004 108.777 37.273C109.094 37.043 109.492 36.953 109.852 36.816C109.984 37.18 110.164 37.546 110.211 37.957C110.254 40.109 110.211 42.301 110.211 44.543ZM110.031 96.484C110.121 97.078 110.211 97.488 110.211 97.855V108.371C110.164 111.848 108.199 114.223 105.785 116.371C102.656 119.117 99.0349 120.898 95.2349 122.406C90.6749 124.238 85.9379 125.426 81.1559 126.25C74.8519 127.3 68.5039 127.805 62.1559 127.621C60.5039 127.574 58.8949 127.527 57.2419 127.391C51.1599 127.027 45.1719 126.066 39.3159 124.465C37.8859 124.055 36.4529 123.551 35.0229 123.047V122.59C35.9649 122.133 36.9029 121.629 37.8869 121.219C43.7419 118.797 49.7299 116.965 55.8549 115.457C62.2459 113.859 68.6369 112.305 75.0309 110.657C82.4059 108.738 89.7809 106.77 96.8439 103.844C101 102.152 105.024 100.188 108.602 97.352C108.957 97.032 109.448 96.848 110.031 96.484Z" fill="#1F1F1F"/>
</svg>
