<svg width="128" height="128" viewBox="0 0 128 128" fill="none" xmlns="http://www.w3.org/2000/svg">
<path d="M25.4529 6.70312L5.48389 29.2931L5.49189 29.2971L5.48389 29.2951L16.6409 96.2951L26.9299 96.2111V26.9301H101.07V101.07H37.8519L39.3629 109.984L78.8129 123.734L122.516 97.5741L108.361 71.0351L122.516 56.9771L107.289 19.1411L77.7389 13.6521L68.3389 22.0061L66.1839 15.4801L25.4539 6.70312H25.4529ZM27.9299 27.9301V100.07H100.07V27.9301H27.9299ZM71.1909 36.1681C74.9006 36.1032 78.5155 37.3418 81.4059 39.6681L78.2619 44.2271C76.2049 42.6217 73.7094 41.6779 71.1049 41.5201C68.7889 41.5201 67.5699 42.5821 67.5699 43.9571V44.0431C67.5699 45.8481 68.7899 46.4801 73.5079 47.7031C79.0939 49.1641 82.2379 51.1641 82.2379 55.9531V56.0391C82.2379 61.5001 78.0659 64.5741 72.1329 64.5741C67.8346 64.5913 63.6807 63.0241 60.4649 60.1721V60.0621L64.0349 55.7851C66.2805 57.8557 69.2005 59.0423 72.2539 59.1251C74.6909 59.1251 76.2269 58.1371 76.2269 56.5271V56.4531C76.2269 54.9181 75.2769 54.1251 70.6799 52.9571C65.1329 51.5431 61.5619 50.0041 61.5619 44.5431V44.4571C61.5619 39.4731 65.5719 36.1681 71.1909 36.1681ZM36.5709 36.5701H47.7849C54.3199 36.5701 58.2809 40.4501 58.2809 46.0431V46.1171C58.2809 52.4571 53.3439 55.7471 47.2029 55.7471H42.6679V63.9651H36.5699L36.5709 36.5701ZM42.6679 42.0081V50.3831H47.3709C50.3829 50.3831 52.1519 48.5901 52.1519 46.2381V46.1641C52.1519 43.4611 50.2729 42.0081 47.2729 42.0081H42.6679ZM36.5469 86.7461H63.9769V91.3201H36.5469V86.7461Z" fill="#1F1F1F"/>
</svg>
