<svg width="32" height="32" viewBox="0 0 32 32" fill="none" xmlns="http://www.w3.org/2000/svg">
<g clip-path="url(#clip0_6114_83)">
<path d="M22.8391 0C21.5947 0.00946891 20.3574 0.189821 19.1621 0.536L19.0791 0.563C18.327 0.432704 17.5662 0.359495 16.8031 0.344C15.2301 0.317 13.8801 0.697 12.7921 1.333C11.7191 0.964 9.49508 0.317 7.15108 0.448C5.52208 0.536 3.74008 1.031 2.41608 2.427C1.10408 3.818 0.407078 5.974 0.552078 8.912C0.593078 9.719 0.823078 11.036 1.20808 12.749C1.58808 14.458 2.12508 16.458 2.79708 18.286C3.46908 20.109 4.20208 21.749 5.34908 22.863C5.92108 23.42 6.71308 23.895 7.64508 23.854C8.29708 23.827 8.88508 23.541 9.39608 23.119C9.64508 23.447 9.91208 23.587 10.1511 23.718C10.4591 23.885 10.7501 23.999 11.0581 24.073C11.6101 24.213 12.5531 24.396 13.6571 24.208C14.0591 24.1357 14.4509 24.0151 14.8241 23.849L14.8711 25.156C14.9281 26.536 14.9661 27.812 15.3761 28.932C15.4441 29.115 15.6271 30.052 16.3451 30.885C17.0691 31.718 18.4741 32.234 20.0841 31.89C21.2151 31.65 22.6571 31.213 23.6161 29.849C24.5641 28.505 24.9911 26.573 25.0751 23.437C25.0951 23.265 25.1221 23.125 25.1471 22.989L25.3711 23.01H25.3981C26.6061 23.062 27.9191 22.89 29.0181 22.379C29.9861 21.931 30.7211 21.478 31.2571 20.671C31.3881 20.472 31.5381 20.228 31.5761 19.811C31.6171 19.4 31.3771 18.748 30.9811 18.447C30.1901 17.843 29.6901 18.072 29.1531 18.187C28.6272 18.3003 28.0919 18.3646 27.5541 18.379C29.0951 15.786 30.1991 13.026 30.8301 10.587C31.2051 9.144 31.4141 7.816 31.4291 6.655C31.4501 5.494 31.3521 4.468 30.6581 3.578C28.4811 0.802 25.4231 0.03 23.0591 0.005H22.8401L22.8391 0ZM22.7761 0.855C25.0111 0.834 27.8691 1.459 29.9211 4.083C30.3851 4.672 30.5211 5.531 30.5051 6.594C30.4891 7.657 30.2921 8.922 29.9321 10.313C29.2401 13.012 27.9211 16.146 26.0731 18.965C26.1367 19.0129 26.2067 19.0516 26.2811 19.08C26.6661 19.241 27.5461 19.376 29.3061 19.017C29.7491 18.922 30.0731 18.861 30.4111 19.116C30.4931 19.1852 30.5579 19.2725 30.6002 19.3711C30.6426 19.4697 30.6614 19.5769 30.6551 19.684C30.6369 19.8464 30.5758 20.001 30.4781 20.132C30.1391 20.641 29.4691 21.127 28.6091 21.528C27.8491 21.881 26.7541 22.064 25.7921 22.075C25.3031 22.08 24.8551 22.043 24.4731 21.923L24.4531 21.919C24.3061 23.33 23.9691 26.122 23.7491 27.392C23.5731 28.417 23.2651 29.236 22.6771 29.845C22.0881 30.46 21.2601 30.824 20.1401 31.064C18.7551 31.361 17.7491 31.043 17.0991 30.496C16.4491 29.949 16.1511 29.22 15.9741 28.777C15.8501 28.47 15.7871 28.074 15.7251 27.542C15.657 26.9068 15.6116 26.2694 15.5891 25.631C15.5481 24.511 15.5321 23.391 15.5481 22.266C14.9703 22.7958 14.2525 23.1484 13.4801 23.282C12.5591 23.438 11.7411 23.282 11.2521 23.162C11.0108 23.1005 10.7781 23.0094 10.5591 22.891C10.3301 22.771 10.1161 22.636 9.97108 22.364C9.88752 22.2082 9.86167 22.028 9.89808 21.855C9.94131 21.6793 10.0424 21.5233 10.1851 21.412C10.4501 21.197 10.8001 21.079 11.3251 20.969C12.2841 20.77 12.6221 20.636 12.8251 20.473C12.9971 20.338 13.1961 20.057 13.5381 19.645C13.5381 19.63 13.5381 19.609 13.5331 19.593C12.9134 19.5741 12.3068 19.4101 11.7621 19.114C11.5651 19.322 10.5381 20.406 9.29408 21.906C8.77308 22.53 8.19508 22.89 7.58108 22.917C6.97208 22.942 6.41808 22.636 5.95008 22.182C5.01308 21.27 4.26208 19.702 3.61108 17.931C2.96008 16.16 2.43408 14.187 2.05408 12.51C1.67908 10.827 1.45508 9.473 1.42308 8.822C1.28308 6.046 1.93408 4.177 3.04808 2.994C4.16208 1.811 5.68908 1.369 7.17908 1.281C9.85108 1.13 12.3921 2.062 12.9031 2.26C13.8921 1.588 15.1681 1.172 16.7621 1.197C17.5175 1.20811 18.2691 1.30609 19.0021 1.489L19.0291 1.473C19.3516 1.36131 19.6801 1.26783 20.0131 1.193C20.9181 0.980604 21.8435 0.86694 22.7731 0.854L22.7761 0.855ZM22.9791 1.745H22.7821C22.0221 1.754 21.2551 1.844 20.5111 2.005C22.1721 2.74 23.4271 3.869 24.3121 5.005C24.9271 5.786 25.4321 6.645 25.8171 7.562C25.9691 7.917 26.0681 8.213 26.1201 8.442C26.1511 8.557 26.1671 8.655 26.1771 8.754C26.1771 8.806 26.1821 8.859 26.1561 8.947C26.1561 8.952 26.1511 8.963 26.1511 8.968C26.1941 10.135 25.9021 10.925 25.8641 12.04C25.8391 12.848 26.0471 13.796 26.0991 14.832C26.1461 15.805 26.0271 16.873 25.3961 17.925C25.4481 17.988 25.4951 18.05 25.5471 18.118C27.2191 15.482 28.4271 12.571 29.0681 10.086C29.4121 8.747 29.5931 7.534 29.6091 6.577C29.6251 5.618 29.4481 4.92 29.2181 4.629C27.4261 2.342 25.0051 1.758 22.9781 1.744L22.9791 1.745ZM16.5881 2.088C15.0161 2.093 13.8851 2.568 13.0271 3.281C12.1401 4.021 11.5471 5.026 11.1621 6.062C10.6981 7.286 10.5371 8.473 10.4741 9.281L10.4951 9.27C11.0503 8.95911 11.6465 8.72785 12.2661 8.583C12.9331 8.426 13.6571 8.379 14.3071 8.635C14.9641 8.884 15.5001 9.483 15.6981 10.384C16.6371 14.728 15.4071 16.343 14.9541 17.561C14.7821 18.004 14.6311 18.452 14.5111 18.91C14.5681 18.899 14.6261 18.883 14.6831 18.878C15.0061 18.853 15.2551 18.957 15.4021 19.019C15.8611 19.211 16.1731 19.607 16.3451 20.06C16.3873 20.1837 16.4184 20.3108 16.4381 20.44C16.4553 20.494 16.4644 20.5503 16.4651 20.607C16.4126 22.268 16.4176 23.9303 16.4801 25.591C16.5121 26.31 16.5591 26.94 16.6161 27.44C16.6731 27.935 16.7511 28.315 16.8041 28.445C16.9751 28.872 17.2251 29.429 17.6791 29.809C18.1271 30.19 18.7721 30.44 19.9551 30.19C20.9801 29.966 21.6111 29.663 22.0321 29.226C22.4551 28.783 22.7041 28.174 22.8651 27.242C23.1101 25.841 23.5941 21.778 23.6521 21.018C23.6271 20.439 23.7091 19.997 23.8971 19.658C24.0841 19.314 24.3761 19.101 24.6321 18.986C24.7561 18.929 24.8761 18.893 24.9751 18.861C24.8703 18.7149 24.7626 18.5708 24.6521 18.429C24.2871 17.9861 23.9871 17.4935 23.7611 16.966C23.6572 16.7448 23.5423 16.5289 23.4171 16.319C23.2411 16.002 23.0171 15.6 22.7821 15.147C22.3131 14.251 21.8031 13.158 21.5371 12.095C21.2721 11.032 21.2361 9.934 21.9131 9.163C22.5121 8.475 23.5691 8.19 25.1461 8.351C25.0991 8.21 25.0741 8.09 24.9951 7.908C24.6364 7.06555 24.1687 6.27379 23.6041 5.553C22.2651 3.84 20.0931 2.141 16.7451 2.084L16.5881 2.088ZM7.73508 2.156C7.56662 2.15582 7.39819 2.16116 7.23008 2.172C5.88108 2.251 4.61008 2.64 3.69808 3.604C2.78708 4.573 2.18908 6.151 2.31808 8.771C2.34508 9.271 2.55808 10.656 2.92708 12.307C3.29808 13.959 3.82308 15.902 4.45408 17.62C5.08308 19.333 5.84508 20.828 6.57408 21.536C6.93808 21.885 7.25508 22.031 7.54208 22.021C7.82908 22.005 8.17808 21.838 8.60508 21.328C9.37997 20.393 10.1844 19.4829 11.0171 18.599C10.4265 18.0849 9.97482 17.4305 9.7036 16.696C9.43238 15.9615 9.35035 15.1705 9.46508 14.396C9.60008 13.412 9.62108 12.489 9.60008 11.76C9.58508 11.052 9.53708 10.584 9.53708 10.287V10.255L9.53208 10.246C9.53208 8.709 9.80408 7.189 10.3241 5.746C10.6991 4.75 11.2521 3.746 12.0841 2.927C11.2671 2.656 9.81308 2.251 8.24108 2.172C8.07296 2.16119 7.90354 2.15585 7.73508 2.156ZM24.2651 9.197C23.3601 9.213 22.8541 9.448 22.5841 9.749C22.2081 10.182 22.1721 10.942 22.4071 11.88C22.6401 12.817 23.1261 13.864 23.5791 14.735C23.8031 15.172 24.0221 15.563 24.1981 15.88C24.3811 16.203 24.5111 16.427 24.5891 16.625C24.6621 16.802 24.7461 16.958 24.8291 17.104C25.1781 16.364 25.2411 15.64 25.2041 14.88C25.1571 13.943 24.9391 12.984 24.9751 12.016C25.0121 10.88 25.2361 10.14 25.2521 9.265C24.9255 9.22182 24.5965 9.1991 24.2671 9.197H24.2651ZM13.2871 9.355C13.0111 9.355 12.7351 9.391 12.4641 9.454C11.927 9.58318 11.4099 9.78468 10.9271 10.053C10.7646 10.1409 10.6097 10.2423 10.4641 10.356L10.4321 10.381C10.4431 10.58 10.4791 11.048 10.4951 11.746C10.5111 12.506 10.4951 13.474 10.3501 14.522C10.0271 16.803 11.6831 18.689 13.6261 18.694C13.7411 18.225 13.9271 17.75 14.1151 17.251C14.6561 15.792 15.7191 14.73 14.8231 10.574C14.6781 9.897 14.3861 9.621 13.9841 9.465C13.7604 9.38626 13.5241 9.34932 13.2871 9.356V9.355ZM23.8441 9.625H23.9121C23.9951 9.63 24.0791 9.636 24.1511 9.656C24.2161 9.66873 24.2782 9.69348 24.3341 9.729C24.3601 9.74459 24.3824 9.76563 24.3995 9.79066C24.4165 9.81569 24.428 9.84412 24.4331 9.874V9.885C24.4328 9.94895 24.4167 10.0118 24.3861 10.068C24.3467 10.1398 24.298 10.2061 24.2411 10.265C24.1066 10.4153 23.9243 10.5146 23.7251 10.546C23.5323 10.5707 23.3372 10.5226 23.1781 10.411C23.115 10.3653 23.0574 10.3126 23.0061 10.254C22.9611 10.2067 22.9317 10.1466 22.9221 10.082C22.9162 10.0204 22.9349 9.95893 22.9741 9.911C23.0204 9.86367 23.0733 9.82326 23.1311 9.791C23.2601 9.718 23.4321 9.666 23.6311 9.639C23.7031 9.63 23.7761 9.624 23.8441 9.619V9.625ZM13.4161 9.849C13.4841 9.849 13.5631 9.854 13.6361 9.864C13.8441 9.896 14.0211 9.948 14.1611 10.031C14.2297 10.0644 14.2901 10.1126 14.3381 10.172C14.39 10.2347 14.4161 10.3148 14.4111 10.396C14.3968 10.473 14.3623 10.5448 14.3111 10.604C14.2562 10.6708 14.1915 10.7288 14.1191 10.776C13.9458 10.9005 13.7317 10.9545 13.5201 10.927C13.3057 10.8925 13.1094 10.7864 12.9631 10.626C12.9017 10.56 12.8489 10.4864 12.8061 10.407C12.7594 10.3362 12.7392 10.2512 12.7491 10.167C12.7701 10.027 12.8901 9.948 13.0051 9.907C13.1361 9.864 13.2761 9.85 13.4161 9.855V9.849ZM25.4951 19.64H25.4901C25.2981 19.713 25.1371 19.74 25.0011 19.803C24.8634 19.8549 24.7503 19.9566 24.6841 20.088C24.5951 20.24 24.5281 20.511 24.5481 20.973C24.6082 21.0163 24.6756 21.0484 24.7471 21.068C24.9711 21.136 25.3561 21.183 25.7831 21.177C26.6321 21.166 27.6791 20.969 28.2361 20.708C28.6913 20.497 29.1139 20.2219 29.4911 19.891C27.6321 20.271 26.5861 20.172 25.9391 19.907C25.7801 19.8382 25.6301 19.7484 25.4951 19.64ZM14.7871 19.765H14.7601C14.6881 19.77 14.5881 19.797 14.3851 20.016C13.9211 20.536 13.7601 20.864 13.3801 21.167C12.9951 21.474 12.5001 21.636 11.5051 21.839C11.2928 21.877 11.0862 21.9415 10.8901 22.031C10.9261 22.063 10.9261 22.074 10.9831 22.099C11.1301 22.183 11.3161 22.251 11.4681 22.292C11.8951 22.396 12.5921 22.521 13.3271 22.396C14.0561 22.271 14.8161 21.921 15.4681 21.011C15.5831 20.855 15.5921 20.62 15.4991 20.37C15.4061 20.126 15.2021 19.907 15.0621 19.85C14.9745 19.8092 14.8816 19.781 14.7861 19.766L14.7871 19.765Z" fill="#1F1F1F"/>
</g>
<defs>
<clipPath id="clip0_6114_83">
<rect width="32" height="32" fill="white"/>
</clipPath>
</defs>
</svg>
