<svg width="24" height="24" viewBox="0 0 24 24" fill="none" xmlns="http://www.w3.org/2000/svg">
<g clip-path="url(#clip0_6115_139)">
<path d="M23.6539 13.492C24.4763 7.05415 19.9298 1.16845 13.5037 0.346101C7.07763 -0.476252 1.16845 4.07018 0.346101 10.4963C-0.476252 16.9224 4.07018 22.8198 10.4963 23.6539C16.9341 24.4763 22.8198 19.9298 23.6539 13.492Z" fill="#1F1F1F"/>
<path d="M16.2409 7.79437L11.2833 12.752L9.88525 11.354C14.7606 6.4786 15.2423 6.90152 16.2409 7.79437Z" fill="#D9D9D9"/>
<path d="M11.2836 12.8692C11.2483 12.8692 11.2248 12.8575 11.2013 12.834L9.7916 11.436C9.7446 11.389 9.7446 11.3185 9.7916 11.2715C14.7492 6.31391 15.2661 6.78381 16.3117 7.72366C16.3352 7.74716 16.3469 7.77063 16.3469 7.80588C16.3469 7.84113 16.3352 7.86463 16.3117 7.88813L11.3541 12.834C11.3423 12.8575 11.3071 12.8692 11.2836 12.8692ZM10.05 11.3538L11.2836 12.5873L16.065 7.80588C15.1956 7.03053 14.6082 6.79556 10.05 11.3538Z" fill="#1F1F1F"/>
<path d="M12.7045 14.1733L11.3535 12.8223L16.3111 7.86475C17.6386 9.204 15.6532 11.3774 12.7045 14.1733Z" fill="#D9D9D9"/>
<path d="M12.7048 14.2909C12.6695 14.2909 12.646 14.2791 12.6225 14.2556L11.2715 12.9046C11.248 12.8811 11.248 12.8576 11.248 12.8224C11.248 12.7871 11.2598 12.7636 11.2833 12.7402L16.2409 7.78255C16.2879 7.73557 16.3584 7.73557 16.4054 7.78255C16.7108 8.0645 16.8753 8.46392 16.8635 8.8751C16.84 10.1791 15.3598 11.8356 12.7988 14.2556C12.7635 14.2791 12.7283 14.2909 12.7048 14.2909ZM11.5182 12.8224C12.2701 13.586 12.5873 13.8914 12.7048 14.0089C14.6784 12.1293 16.5933 10.2026 16.6051 8.8751C16.6168 8.56967 16.4993 8.26422 16.2996 8.02927L11.5182 12.8224Z" fill="#1F1F1F"/>
<path d="M9.90865 11.389L10.9072 12.3876C10.9307 12.4111 10.9307 12.4346 10.9072 12.4581C10.8955 12.4698 10.8955 12.4698 10.8837 12.4698L8.8161 12.9163C8.71038 12.928 8.6164 12.8575 8.5929 12.7518C8.58115 12.6931 8.60465 12.6343 8.6399 12.5991L9.83817 11.4008C9.86167 11.3773 9.8969 11.3655 9.90865 11.389Z" fill="#D9D9D9"/>
<path d="M8.78104 13.0337C8.60484 13.0337 8.47559 12.8927 8.47559 12.7165C8.47559 12.6343 8.51084 12.552 8.56959 12.4933L9.76786 11.295C9.83836 11.2363 9.93234 11.2363 10.0028 11.295L11.0014 12.2936C11.0719 12.3523 11.0719 12.4581 11.0014 12.5285C10.9779 12.552 10.9544 12.5638 10.9192 12.5755L8.85154 13.022C8.82804 13.022 8.80454 13.0337 8.78104 13.0337ZM9.87359 11.5182L8.72231 12.6695C8.69881 12.693 8.68706 12.7283 8.71056 12.7635C8.72231 12.7987 8.75754 12.8105 8.79279 12.7987L10.7312 12.3758L9.87359 11.5182Z" fill="#1F1F1F"/>
<path d="M18.8609 5.0452C18.1091 4.31683 16.899 4.34033 16.1707 5.10393C15.4423 5.86755 15.4658 7.06583 16.2294 7.7942C16.8521 8.39335 17.7919 8.49908 18.532 8.05265L17.1927 6.7134L18.8609 5.0452Z" fill="#D9D9D9"/>
<path d="M17.545 8.44044C16.429 8.44044 15.5244 7.53584 15.5244 6.41979C15.5244 5.30374 16.429 4.39917 17.545 4.39917C18.0619 4.39917 18.5671 4.59887 18.943 4.96307C18.9665 4.98657 18.9783 5.01007 18.9783 5.04529C18.9783 5.08054 18.9665 5.10404 18.943 5.12754L17.3571 6.71349L18.6023 7.95877C18.6493 8.00577 18.6493 8.07624 18.6023 8.12324C18.5906 8.13499 18.5906 8.13499 18.5789 8.14674C18.2734 8.33472 17.9092 8.44044 17.545 8.44044ZM17.545 4.64587C16.5582 4.64587 15.7594 5.44472 15.7711 6.43154C15.7711 7.41837 16.57 8.21722 17.5568 8.20547C17.827 8.20547 18.0972 8.14674 18.3439 8.01752L17.1104 6.79574C17.0869 6.77224 17.0751 6.74874 17.0751 6.71349C17.0751 6.67824 17.0869 6.65477 17.1104 6.63127L18.6846 5.05704C18.3674 4.78684 17.968 4.64587 17.545 4.64587Z" fill="#1F1F1F"/>
<path d="M18.8958 5.08038L18.8723 5.05688L17.1924 6.71333L18.5199 8.04086C18.6491 7.95861 18.7784 7.86463 18.8841 7.75891C19.636 7.01878 19.636 5.82051 18.8958 5.08038Z" fill="#D9D9D9"/>
<path d="M18.5319 8.17014C18.4967 8.17014 18.4732 8.15839 18.4497 8.13489L17.1104 6.79564C17.0869 6.77214 17.0752 6.74864 17.0752 6.71342C17.0752 6.67817 17.0869 6.65467 17.1104 6.63117L18.7786 4.96297C18.8256 4.91599 18.8961 4.91599 18.9431 4.96297L18.9783 4.98647C19.7654 5.77357 19.7655 7.04234 18.9901 7.84119C18.8726 7.95869 18.7434 8.06442 18.6024 8.14664C18.5672 8.15839 18.5437 8.17014 18.5319 8.17014ZM17.3571 6.71342L18.5437 7.89994C18.6377 7.84119 18.7316 7.75897 18.8021 7.68849C19.4718 7.01884 19.507 5.92629 18.8609 5.22142L17.3571 6.71342Z" fill="#1F1F1F"/>
<path d="M16.4408 8.0059C16.1588 7.72395 15.7006 7.72395 15.4187 8.0059L10.9897 12.4348L11.7299 13.175L16.4173 9.0632C16.7227 8.80475 16.7462 8.34657 16.4877 8.04115C16.4643 8.0294 16.4525 8.01765 16.4408 8.0059Z" fill="#D9D9D9"/>
<path d="M11.718 13.2922C11.6827 13.2922 11.6592 13.2805 11.6357 13.257L10.8956 12.5169C10.8486 12.4699 10.8486 12.3994 10.8956 12.3524L15.3246 7.92347C15.6535 7.59452 16.1822 7.59452 16.5111 7.92347C16.84 8.2524 16.84 8.78105 16.5111 9.11C16.4993 9.12175 16.4876 9.1335 16.4759 9.14525L11.7884 13.257C11.7767 13.2805 11.7532 13.2922 11.718 13.2922ZM11.1541 12.4346L11.7297 13.0103L16.3349 8.96902C16.5933 8.75757 16.6168 8.36987 16.4054 8.11142C16.1939 7.85297 15.8062 7.82947 15.5478 8.04095C15.536 8.0527 15.5243 8.06445 15.5008 8.07617L11.1541 12.4346Z" fill="#1F1F1F"/>
<path d="M7.59421 17.4746C7.54721 17.4981 7.52374 17.5451 7.53546 17.592L7.73519 18.4379C7.78219 18.5554 7.71169 18.6964 7.58246 18.7316C7.48849 18.7668 7.38276 18.7316 7.32401 18.6611L6.03174 17.3806L10.2492 13.1631L11.706 13.1866L12.6928 14.1734C12.4578 14.3731 11.0363 15.7476 7.59421 17.4746Z" fill="#D9D9D9"/>
<path d="M7.50044 18.8489C7.40646 18.8489 7.31249 18.8136 7.25374 18.7431L5.97321 17.4626C5.94971 17.4391 5.93799 17.4156 5.93799 17.3804C5.93799 17.3451 5.94971 17.3216 5.97321 17.2982L10.1907 13.0807C10.2142 13.0572 10.2494 13.0454 10.2729 13.0454L11.7297 13.0689C11.7649 13.0689 11.7884 13.0807 11.8119 13.1042L12.7987 14.091C12.8222 14.1145 12.834 14.1497 12.834 14.185C12.834 14.2202 12.8222 14.2437 12.787 14.2672L12.7048 14.3377C11.4595 15.4302 9.76779 16.5228 7.66491 17.5684L7.86464 18.4025C7.89986 18.5552 7.82939 18.7196 7.68841 18.8019C7.61791 18.8371 7.55919 18.8489 7.50044 18.8489ZM6.20819 17.3804L7.41821 18.5787C7.45346 18.6374 7.52394 18.6609 7.58269 18.6257C7.64141 18.5904 7.66491 18.5199 7.62966 18.4612L7.42996 17.6153C7.40646 17.5096 7.45346 17.4156 7.54744 17.3686C9.62681 16.3231 11.3068 15.2423 12.5403 14.1732L11.6709 13.3039L10.3199 13.2804L6.20819 17.3804Z" fill="#1F1F1F"/>
<path d="M5.03314 18.3909L6.04347 17.3806L7.54719 18.8843L5.15061 18.7199C5.04489 18.7081 4.97439 18.6141 4.98614 18.5084C4.98614 18.4614 4.99789 18.4144 5.03314 18.3909Z" fill="#D9D9D9"/>
<path d="M7.54753 18.9899L5.1392 18.8254C4.96298 18.8137 4.8455 18.661 4.85725 18.4847C4.869 18.4142 4.8925 18.3438 4.95123 18.2968L5.96155 17.2865C6.00855 17.2395 6.07903 17.2395 6.12603 17.2865L7.62975 18.7902C7.665 18.8254 7.67675 18.8724 7.65325 18.9194C7.62975 18.9664 7.5945 18.9899 7.54753 18.9899ZM6.04378 17.5449L5.1157 18.473C5.08045 18.4965 5.08045 18.5552 5.1157 18.5787C5.12745 18.5905 5.1392 18.6022 5.1627 18.6022L7.24208 18.7432L6.04378 17.5449Z" fill="#1F1F1F"/>
<path d="M9.83867 13.7034C9.76819 13.7034 9.72119 13.6446 9.72119 13.5859C9.72119 13.5506 9.73294 13.5272 9.75644 13.5037L10.896 12.3641C10.943 12.3171 11.0135 12.3171 11.0604 12.3641L11.8006 13.1042C11.8358 13.1395 11.8476 13.1747 11.8358 13.2217C11.8241 13.257 11.7888 13.2922 11.7418 13.3039L9.86217 13.7034H9.83867ZM10.9782 12.6108L10.2028 13.3862L11.4716 13.116L10.9782 12.6108Z" fill="#1F1F1F"/>
<path d="M11.7062 13.1864L10.414 13.4683C10.32 13.4918 10.226 13.4331 10.2025 13.3391C10.1907 13.2804 10.2025 13.2216 10.2495 13.1746L10.9661 12.458L11.7062 13.1864Z" fill="#D9D9D9"/>
<path d="M10.3904 13.5859C10.2259 13.5859 10.0967 13.4567 10.0967 13.2922C10.0967 13.21 10.1319 13.1395 10.1789 13.0807L10.8955 12.3641C10.9425 12.3171 11.013 12.3171 11.06 12.3641L11.8001 13.1042C11.8354 13.1395 11.8471 13.1747 11.8354 13.2217C11.8236 13.257 11.7884 13.2922 11.7414 13.3039L10.4491 13.5859H10.3904ZM10.9778 12.6108L10.3434 13.2452C10.3199 13.2687 10.3199 13.2922 10.3316 13.3157C10.3434 13.3392 10.3669 13.3509 10.4021 13.3509L11.4829 13.116L10.9778 12.6108Z" fill="#1F1F1F"/>
<path d="M18.9076 6.20837C18.8841 6.1379 18.8019 6.10265 18.7314 6.12615C18.6609 6.14965 18.6257 6.23187 18.6492 6.30237C18.6492 6.3141 18.6609 6.32585 18.6609 6.3376C18.7314 6.47857 18.7079 6.6548 18.6139 6.78402C18.5669 6.84277 18.5787 6.925 18.6257 6.972C18.6844 7.01897 18.7666 7.00722 18.8136 6.9485C18.9898 6.72527 19.0251 6.44335 18.9076 6.20837Z" fill="#1F1F1F"/>
</g>
<defs>
<clipPath id="clip0_6115_139">
<rect width="24" height="24" fill="white"/>
</clipPath>
</defs>
</svg>
