<svg width="128" height="128" viewBox="0 0 128 128" fill="none" xmlns="http://www.w3.org/2000/svg">
<path d="M55.5398 5.48584L12.6658 23.4558L5.48584 99.1208L45.6168 122.514L53.7108 112.971L86.8208 122.295L122.514 110.178L112.322 71.5448L121.734 52.3948L101.072 35.2108V101.072H26.9298V26.9298H95.6838L92.5248 5.48584L76.8708 19.4728L55.5398 5.48584ZM27.9298 27.9298V100.072H100.072V27.9298H27.9298ZM75.8238 36.1198C77.8204 36.0187 79.8158 36.3423 81.678 37.0695C83.5403 37.7966 85.227 38.9106 86.6268 40.3378L82.7988 44.7638C80.956 42.855 78.439 41.7437 75.7868 41.6678C71.1668 41.6678 67.8398 45.5058 67.8398 50.1988V50.2848C67.8398 54.9778 71.0938 58.8908 75.7868 58.8908C78.9198 58.8908 80.8338 57.6728 82.9918 55.6858L86.8198 59.5488C85.4415 61.1605 83.7144 62.4372 81.7694 63.2822C79.8243 64.1272 77.7125 64.5183 75.5938 64.4258C73.7398 64.454 71.8991 64.1092 70.181 63.4119C68.4629 62.7146 66.9024 61.6792 65.5924 60.367C64.2823 59.0548 63.2494 57.4926 62.5549 55.7734C61.8605 54.0541 61.5187 52.2128 61.5498 50.3588V50.2848C61.5147 48.4058 61.8608 46.5391 62.5671 44.7974C63.2734 43.0558 64.3253 41.4754 65.6593 40.1515C66.9933 38.8277 68.5818 37.7879 70.3288 37.095C72.0758 36.4021 73.9451 36.0703 75.8238 36.1198ZM36.5698 36.5698H47.7848C54.3188 36.5698 58.2808 40.4478 58.2808 46.0428V46.1148C58.2808 52.4548 53.3448 55.7458 47.2008 55.7458H42.6678V63.9628H36.5718L36.5698 36.5698ZM42.6678 42.0078V50.3828H47.3708C50.3818 50.3828 52.1508 48.5908 52.1508 46.2378V46.1638C52.1508 43.4578 50.2738 42.0078 47.2748 42.0078H42.6678ZM36.5468 86.7458H63.9768V91.3178H36.5468V86.7458Z" fill="#1F1F1F"/>
</svg>
