<svg width="107" height="123" viewBox="0 0 107 123" fill="none" xmlns="http://www.w3.org/2000/svg">
<path fill-rule="evenodd" clip-rule="evenodd" d="M41.2102 20.5162C44.9662 20.5162 48.7222 20.5742 52.4732 20.4762C53.4682 20.4502 55.2532 21.2732 55.1731 19.2052C55.1121 17.5222 53.5512 18.1312 52.6052 18.1162C48.3682 18.0492 44.1172 17.8882 39.8972 18.1532C36.8942 18.3402 36.0091 17.2002 36.3862 14.4462C36.5161 13.4962 36.3912 12.5122 36.4112 11.5442C36.5432 5.09821 38.1012 2.90421 44.3532 1.31421C51.2412 -0.435793 58.2901 -0.377793 65.1591 1.13021C71.3341 2.48621 73.8992 7.29021 73.5872 11.7342C73.2071 17.1572 73.5012 22.6272 73.4962 28.0772C73.4872 34.9302 69.9462 38.5672 63.0372 38.6622C57.3472 38.7402 51.6502 38.8022 45.9632 38.6442C39.1852 38.4542 34.2132 44.0842 34.1792 50.4642C34.1792 50.9482 34.2622 51.4482 34.1662 51.9152C33.6782 54.2582 35.6282 58.0452 33.1442 58.7412C29.3642 59.8032 24.9382 59.8032 21.6042 56.4302C20.4742 55.2902 19.5222 54.0132 19.0202 52.5372C16.3412 44.6722 15.9182 36.7072 18.4402 28.7192C20.0122 23.7332 24.2882 20.6322 29.5852 20.5432C33.4592 20.4782 37.3342 20.5302 41.2082 20.5302L41.2102 20.5162ZM48.1122 9.39621C47.9502 7.49321 46.9272 6.10421 44.8162 6.04621C42.5072 5.98621 41.3142 7.38221 41.3112 9.65421C41.3092 11.7602 42.4562 13.1092 44.5522 13.1702C46.8552 13.2372 47.9702 11.8102 48.1122 9.39621Z" fill="#1F1F1F"/>
<path fill-rule="evenodd" clip-rule="evenodd" d="M70.1999 59.0714C65.9599 59.0714 61.7179 59.0344 57.4779 59.1014C56.5229 59.1134 54.9209 58.5094 54.8709 60.1424C54.8149 61.9944 56.5339 61.5124 57.6259 61.5234C61.8659 61.5764 66.1099 61.6214 70.3489 61.5034C72.5269 61.4434 73.4159 61.8604 73.5789 64.4284C74.3159 76.0534 69.2709 77.0584 59.9659 79.1734C54.6279 80.3864 48.9049 79.7434 43.6409 77.3854C39.2879 75.4384 36.6169 72.6324 36.9539 67.3784C37.2879 62.1924 37.3439 56.9394 36.9449 51.7584C36.4649 45.5054 40.3549 40.9064 47.9199 40.9044C53.0099 40.9034 58.1339 40.5154 63.1799 40.9794C70.3949 41.6414 76.0519 35.3874 76.2999 28.1154C76.3099 27.8744 76.2479 27.6154 76.3099 27.3914C76.9459 25.1564 74.6839 21.8344 77.7099 20.7054C82.2829 19.0004 87.4399 20.7924 89.7759 24.2624C92.7209 28.6314 93.1189 33.7724 93.5949 38.7924C94.1099 44.2034 92.5919 49.2974 90.3189 54.1784C88.7749 57.4884 86.1789 59.0884 82.5619 59.0934C78.4419 59.0964 74.3229 59.0934 70.2019 59.0934C70.1999 59.0854 70.1999 59.0784 70.1999 59.0714ZM69.0959 69.8714C68.6429 67.8054 67.7109 66.3954 65.3109 66.3364C62.8149 66.2764 62.1709 68.1434 62.1839 69.8104C62.1979 71.5824 62.6919 73.7624 65.3939 73.5584C67.6399 73.3864 68.7349 71.9954 69.0959 69.8714Z" fill="#262626"/>
<path fill-rule="evenodd" clip-rule="evenodd" d="M3.50492 112.348C3.50492 114.93 3.62192 117.348 3.44992 119.745C3.37592 120.779 4.51592 122.725 2.34692 122.723C0.434918 122.723 -0.0560821 121.201 0.00491792 119.362C0.121918 115.852 0.0389183 112.335 0.0389183 108.822V100.824C0.0389183 96.0042 1.33192 94.3722 5.94192 93.3742C10.2279 92.4422 13.5959 93.8852 15.3279 97.6372C17.0599 101.39 17.1939 105.257 15.4609 109.075C13.7529 112.837 10.6069 114.241 6.57692 113.126C5.65892 112.876 4.73192 112.659 3.50492 112.348ZM3.50492 102.9C3.50492 104.23 3.68492 105.586 3.46792 106.88C2.96592 109.871 4.87592 110.608 7.12792 111.14C9.35492 111.666 10.8819 110.719 11.7749 108.757C13.2759 105.467 13.5279 102.074 12.3879 98.5952C11.3759 95.5032 9.03892 95.1412 6.31092 95.5252C3.61692 95.9082 3.25192 97.7402 3.48692 100.005C3.58692 100.96 3.50492 101.935 3.50492 102.9ZM32.4919 112.188C30.6469 112.668 29.0449 113.18 27.4049 113.488C23.8149 114.159 21.1569 112.188 20.2219 108.594C19.0619 104.146 20.0439 99.7152 20.0739 95.2772C20.0869 93.2542 21.9589 94.0432 23.2539 92.9592C23.2539 97.7092 23.2719 101.809 23.2479 105.906C23.2349 107.964 23.7669 109.656 25.7129 110.741C27.8609 111.939 29.6229 110.798 31.4929 110.029C32.8329 109.478 32.6659 108.353 32.6679 107.283C32.6779 103.411 32.6669 99.5432 32.6799 95.6712C32.6819 94.7162 32.5829 93.5492 33.9929 93.5962C35.2499 93.6372 35.7969 94.3842 35.7759 95.7542C35.6849 102.161 35.8659 108.577 35.6059 114.975C35.4089 119.813 31.9959 122.768 27.0859 122.985C26.3509 123.016 25.5809 123.084 25.3059 122.172C24.8869 120.768 26.0239 121.033 26.7709 120.794C32.1719 119.076 32.8779 118.05 32.4919 112.188ZM55.3159 95.5632C56.7449 94.8882 57.5659 94.2702 58.4689 94.1032C63.5359 93.1662 67.4189 93.5232 67.4089 100.348C67.4019 103.863 67.4109 107.379 67.4019 110.893C67.3999 111.877 67.4629 112.835 65.9959 112.92C64.4489 113.012 64.1089 112.127 64.1159 110.914C64.1339 107.527 64.2259 104.14 64.2229 100.754C64.2209 98.1242 63.6839 95.7962 60.3389 95.8042C57.4049 95.8092 55.3269 97.9992 55.3119 101.021C55.2951 104.293 55.2961 107.564 55.3149 110.835C55.3179 111.997 55.3429 113.016 53.6629 112.92C52.1499 112.83 52.3359 111.81 52.3359 110.871C52.3259 102.271 52.3679 93.6622 52.2949 85.0562C52.2819 83.5482 52.8769 82.6122 54.2149 82.5482C56.1029 82.4612 55.2379 84.1122 55.2659 84.9402C55.3889 88.3112 55.3159 91.6902 55.3159 95.5632ZM71.3059 103.274C71.1149 96.5592 74.2999 92.9742 80.0659 93.1822C82.9599 93.2882 85.1309 94.5722 86.5319 97.0722C89.0069 101.494 88.6719 105.918 85.9939 110.059C84.1539 112.903 81.3239 114.244 77.8739 113.512C74.4719 112.792 71.8079 109.729 71.3259 106.159C71.1979 105.214 71.3059 104.235 71.3059 103.274ZM84.6259 103.431C84.4739 102.259 84.5009 100.625 84.0129 99.1672C83.3459 97.1672 82.1299 95.5572 79.6489 95.4472C77.1459 95.3392 75.8969 96.8022 75.0619 98.8272C73.7509 102.006 73.8359 105.198 75.2559 108.32C76.1679 110.331 77.5759 111.803 80.0159 111.395C82.4189 110.994 83.8369 109.419 84.3279 107.082C84.5509 106.023 84.5149 104.914 84.6259 103.432V103.431ZM91.6329 104.326C91.6329 103.114 91.6099 101.904 91.6369 100.698C91.6929 98.3732 90.9519 95.7972 94.0869 94.6092C97.6769 93.2532 101.235 92.2372 104.849 94.3362C106.201 95.1222 106.699 96.5502 106.713 98.0662C106.75 102.297 106.694 106.53 106.751 110.761C106.771 112.237 106.383 112.975 104.724 112.935C102.906 112.892 103.289 111.652 103.301 110.662C103.344 107.282 103.579 103.905 103.515 100.53C103.431 96.2802 101.099 94.5472 97.1259 95.5902C95.4779 96.0242 94.4479 96.8242 94.5289 98.8642C94.6899 102.846 94.5659 106.842 94.5809 110.831C94.5849 111.987 94.6019 113.011 92.9339 112.914C91.4059 112.826 91.6559 111.769 91.6439 110.852C91.6159 108.676 91.6359 106.499 91.6329 104.326ZM48.0649 94.9022C47.8149 95.1982 47.6049 95.6622 47.3849 95.6662C43.4209 95.7212 44.5209 98.6802 44.4189 100.875C44.3219 102.92 44.4189 104.975 44.3899 107.026C44.3599 109.064 44.5369 110.958 47.0169 111.499C47.7279 111.653 48.0519 112.063 47.9039 112.773C47.7409 113.557 47.1159 113.526 46.4969 113.518C43.6469 113.468 41.5339 111.453 41.4499 108.503C41.3639 105.489 41.4809 102.468 41.4099 99.4572C41.3729 98.0272 42.1159 96.2022 39.8099 95.6352C39.5569 95.5742 39.4669 94.8572 39.3019 94.4482C42.3779 93.4832 41.1019 90.8302 41.5239 88.8172C41.7239 87.8642 42.6289 87.6032 43.4839 87.5222C44.3489 87.4402 44.3559 88.1402 44.3839 88.7252C44.4979 91.0452 43.2969 94.1502 47.5679 93.9812C47.7109 93.9762 47.8779 94.5432 48.0649 94.9012V94.9022Z" fill="#1F1F1F"/>
</svg>
