<svg width="32" height="32" viewBox="0 0 32 32" fill="none" xmlns="http://www.w3.org/2000/svg">
<g clip-path="url(#clip0_6064_879)">
<path d="M29.094 1.661C28.6476 2.73582 28.0741 3.75338 27.386 4.692C24.3757 1.68666 20.2957 -0.00121378 16.042 -0.00099943C7.24 -0.00099943 0 7.239 0 16.041C0.000128646 18.2145 0.441988 20.3653 1.29875 22.3628C2.15551 24.3603 3.40931 26.1629 4.984 27.661L5.573 28.187C8.46572 30.6223 12.1247 31.9594 15.906 31.963C24.276 31.963 31.307 25.411 31.906 17.067C32.344 12.978 31.14 7.812 29.093 1.666L29.094 1.661ZM7.26 27.755C7.13228 27.9138 6.97035 28.0417 6.78628 28.1291C6.60222 28.2166 6.40078 28.2613 6.197 28.26C5.437 28.26 4.827 27.645 4.822 26.89C4.822 26.135 5.447 25.515 6.197 25.515C7.348 25.52 7.989 26.859 7.26 27.755ZM29.031 22.953C25.073 28.224 16.614 26.448 11.198 26.703C11.198 26.703 10.234 26.76 9.266 26.917C9.266 26.917 9.631 26.766 10.099 26.584C13.906 25.261 15.703 25.006 18.016 23.818C22.37 21.604 26.677 16.761 27.573 11.724C25.912 16.573 20.885 20.734 16.307 22.427C13.172 23.583 7.505 24.708 7.505 24.708L7.276 24.588C3.417 22.713 3.302 14.359 10.312 11.661C13.38 10.484 16.322 11.13 19.635 10.343C23.177 9.499 27.276 6.843 28.942 3.379C30.807 8.921 33.051 17.594 29.031 22.953Z" fill="#1F1F1F"/>
</g>
<defs>
<clipPath id="clip0_6064_879">
<rect width="32" height="32" fill="white"/>
</clipPath>
</defs>
</svg>
