<svg width="32" height="32" viewBox="0 0 32 32" fill="none" xmlns="http://www.w3.org/2000/svg">
<g clip-path="url(#clip0_6061_478)">
<path d="M8.86255 18.3042H0.800049L0.804549 18.4214C0.808799 18.4972 0.814299 18.5722 0.818549 18.6469C0.820049 18.6794 0.821549 18.7119 0.824299 18.7444C0.839896 18.9477 0.859651 19.1507 0.883549 19.3532C0.883549 19.3629 0.885049 19.3712 0.886549 19.3812C0.899049 19.4842 0.911549 19.5884 0.927299 19.6914C0.927299 19.6927 0.927299 19.6939 0.928549 19.6952C1.02091 20.3365 1.15986 20.9703 1.3443 21.5914C1.3458 21.5942 1.3473 21.5957 1.3473 21.5984C1.37747 21.7023 1.40931 21.8056 1.4428 21.9084C1.4443 21.9139 1.4473 21.9197 1.44855 21.9254C1.4768 22.0129 1.5078 22.1002 1.5373 22.1889C1.54605 22.2102 1.5528 22.2324 1.56155 22.2552C1.5883 22.3302 1.61505 22.4062 1.64305 22.4822C1.65755 22.5157 1.6698 22.5497 1.6828 22.5849C1.70805 22.6472 1.7318 22.7089 1.75605 22.7727C1.77555 22.8189 1.7958 22.8652 1.8153 22.9134C1.8348 22.9614 1.85605 23.0109 1.8758 23.0599C1.90255 23.1192 1.9293 23.1782 1.95455 23.2374C1.97155 23.2742 1.98705 23.3097 2.00255 23.3447C2.03505 23.4149 2.0688 23.4872 2.1028 23.5574L2.1363 23.6264C2.17605 23.7084 2.2168 23.7889 2.25755 23.8689C2.26505 23.8814 2.27005 23.8939 2.27605 23.9057C2.32426 23.9993 2.3736 24.0923 2.42405 24.1847C2.43405 24.2029 2.4453 24.2214 2.45505 24.2384L9.3408 20.1112L9.3658 20.0957C9.09627 19.532 8.92618 18.9259 8.86305 18.3042H8.86255Z" fill="#1F1F1F"/>
<path d="M1.44329 21.9084L1.18079 21.9832L1.18379 21.9904L1.44329 21.9084Z" fill="#1F1F1F"/>
<path d="M10.8428 21.9873L10.8248 22.0073L5.14575 27.6591C5.17525 27.6858 5.20325 27.7131 5.233 27.7396C5.28675 27.7876 5.34 27.8356 5.394 27.8818C5.422 27.9061 5.44875 27.9313 5.477 27.9553C5.542 28.0103 5.607 28.0636 5.67175 28.1173C5.68825 28.1331 5.70675 28.1471 5.72375 28.1608C5.80546 28.2293 5.88856 28.2962 5.973 28.3613C6.055 28.4246 6.1355 28.4851 6.217 28.5471C6.22125 28.5501 6.22425 28.5516 6.22675 28.5546C6.56932 28.8097 6.92407 29.0481 7.28975 29.2688C7.30225 29.2776 7.31475 29.2843 7.3275 29.2931L7.53625 29.4156C7.57825 29.4396 7.62225 29.4633 7.6645 29.4891C7.70525 29.5113 7.7445 29.5341 7.78575 29.5566C7.86075 29.5961 7.93375 29.6368 8.00825 29.6748C8.22458 29.7877 8.44409 29.8944 8.6665 29.9948L8.86825 29.5083L11.7253 22.6046L11.7353 22.5796C11.4193 22.4115 11.1204 22.213 10.8428 21.9873Z" fill="#3B3B3B"/>
<path d="M10.2525 21.425C10.1388 21.2972 10.0305 21.1646 9.92803 21.0275C9.87303 20.9543 9.81978 20.881 9.77053 20.805C9.7194 20.7301 9.67005 20.6539 9.62253 20.5765L2.72803 24.7105C2.83528 24.8855 2.94553 25.0555 3.05803 25.2235C3.06228 25.2293 3.06503 25.236 3.06903 25.242L3.07353 25.2478C3.07628 25.253 3.08053 25.2585 3.08328 25.2643C3.08453 25.2658 3.08453 25.2658 3.08453 25.2673C3.09453 25.2798 3.10303 25.2923 3.11278 25.3068C3.11278 25.3083 3.11278 25.3083 3.11428 25.3093V25.3108C3.23615 25.4903 3.36261 25.6666 3.49353 25.8395C3.49628 25.8438 3.49928 25.8468 3.50053 25.8508C3.55703 25.9228 3.61178 25.996 3.66803 26.0678C3.74872 26.1683 3.83005 26.2683 3.91203 26.3678C3.96703 26.433 4.02203 26.4978 4.07703 26.561C4.10103 26.5893 4.12628 26.6163 4.15003 26.643C4.19703 26.6965 4.24478 26.7503 4.29253 26.8035C4.31928 26.8333 4.34753 26.8613 4.37428 26.891C4.38578 26.9035 4.39828 26.918 4.41103 26.9305L4.51678 27.0445L4.56028 27.0883C4.62378 27.1548 4.68753 27.2193 4.75203 27.2833L10.438 21.6238C10.3749 21.5586 10.3129 21.4923 10.252 21.425H10.2525Z" fill="#929090"/>
<path d="M17.79 21.9847C17.7267 22.0337 17.665 22.0832 17.6 22.1312L17.614 22.155L21.7605 29.0052C21.9525 28.8803 22.1414 28.7507 22.327 28.6165C22.7323 28.3189 23.1209 27.9992 23.4912 27.659L17.813 22.007L17.79 21.9847Z" fill="#3B3B3B"/>
<path d="M21.2448 29.3264C21.2633 29.3167 21.2815 29.3069 21.3 29.2954L21.2985 29.2939C21.2809 29.3052 21.2629 29.316 21.2448 29.3264ZM21.2335 29.3322L21.2323 29.3337C21.2335 29.3322 21.235 29.3322 21.2365 29.3307C21.235 29.3322 21.235 29.3322 21.2335 29.3322Z" fill="#1F1F1F"/>
<path d="M21.245 29.3265C21.2633 29.3157 21.2815 29.307 21.3 29.2955C21.282 29.3064 21.2637 29.3168 21.245 29.3265ZM21.1578 29.0615L21.0168 28.829L17.146 22.4342C17.0685 22.4822 16.9885 22.5245 16.908 22.5667C16.8275 22.6105 16.7455 22.6497 16.664 22.6892C15.9281 23.0372 15.1243 23.2182 14.3103 23.2192C13.7796 23.2192 13.2516 23.1427 12.7428 22.9922C12.657 22.9655 12.5723 22.932 12.4863 22.902C12.4005 22.8712 12.3133 22.8457 12.2283 22.8107L9.37425 29.7087L9.26275 29.9792L9.167 30.2117H9.16575L9.188 30.2202C9.19675 30.2245 9.2035 30.226 9.21225 30.2302H9.21375C9.215 30.2302 9.21625 30.2315 9.2175 30.2315C9.2855 30.2595 9.353 30.284 9.42075 30.309C9.50675 30.343 9.5915 30.3755 9.67575 30.4065C9.7195 30.4215 9.76175 30.4415 9.80575 30.4555C10.7005 30.7694 11.6254 30.99 12.5655 31.1137C12.6033 31.118 12.64 31.1237 12.6765 31.1282L12.792 31.1407C12.8643 31.149 12.9363 31.1577 13.0093 31.1645L13.063 31.169C13.153 31.1772 13.242 31.1845 13.3305 31.1915C13.3605 31.1927 13.3913 31.194 13.421 31.197C13.5 31.2027 13.5773 31.207 13.6548 31.211C13.7028 31.2125 13.7508 31.214 13.7988 31.217C13.8608 31.2182 13.9225 31.2207 13.9845 31.2222C14.0733 31.2252 14.1635 31.2252 14.2538 31.2267H14.3173C15.0685 31.2267 15.8198 31.1645 16.5628 31.0405L16.6005 31.035C16.678 31.0205 16.7573 31.007 16.8363 30.9927C16.8813 30.9842 16.925 30.9757 16.9698 30.9657C17.0153 30.9575 17.0618 30.9477 17.1083 30.9375C17.184 30.922 17.2603 30.905 17.3363 30.887L17.3788 30.8785C18.5071 30.6162 19.5975 30.2113 20.6235 29.6735C20.691 29.6385 20.756 29.5985 20.8235 29.5622C20.9028 29.5185 20.9815 29.4732 21.0605 29.4282C21.1153 29.3972 21.1715 29.369 21.2255 29.3365L21.2268 29.3352H21.2283L21.2293 29.3337C21.2308 29.3337 21.2308 29.3337 21.2308 29.3322H21.2323C21.2335 29.3307 21.235 29.3307 21.235 29.3307C21.238 29.328 21.2408 29.3265 21.2433 29.325C21.2618 29.3142 21.2803 29.3042 21.297 29.2925L21.1578 29.0615ZM10.847 13.5375C10.9093 13.4865 10.9728 13.4385 11.0358 13.3905L11.0218 13.3667L6.87675 6.51648C6.68334 6.64126 6.49343 6.77139 6.30725 6.90673C5.90252 7.20344 5.51475 7.52261 5.14575 7.86273L10.8248 13.515L10.847 13.5375Z" fill="#1F1F1F"/>
<path d="M4.75094 8.23927C4.68594 8.30427 4.62569 8.37027 4.56219 8.43527C4.49994 8.50027 4.43519 8.56527 4.37344 8.63102C3.94012 9.09885 3.53983 9.59621 3.17544 10.1195C3.13719 10.1758 3.09744 10.232 3.05969 10.2888C3.01969 10.348 2.98069 10.407 2.94269 10.4678C2.92819 10.4888 2.91444 10.511 2.90044 10.5328C1.61931 12.5351 0.894476 14.8425 0.80044 17.2178C0.79719 17.3078 0.79469 17.3998 0.79319 17.4898C0.79169 17.5798 0.78894 17.6703 0.78894 17.7605H8.83169C8.83169 17.6703 8.84019 17.58 8.84419 17.4898C8.84844 17.3983 8.84994 17.308 8.85969 17.2178C8.96529 16.1473 9.38741 15.1326 10.0722 14.303C10.1297 14.2338 10.1947 14.1678 10.2547 14.1013C10.3172 14.0335 10.3737 13.9645 10.4382 13.8995L4.75094 8.23927ZM21.3464 6.25177C21.2646 6.20273 21.1824 6.1544 21.0997 6.10677C21.0574 6.08252 21.0167 6.05877 20.9742 6.03602C20.9317 6.01227 20.8912 5.98977 20.8489 5.96577C20.7765 5.92584 20.7036 5.88684 20.6302 5.84877C20.6189 5.84302 20.6077 5.83752 20.5967 5.83077C20.1261 5.58667 19.6418 5.37006 19.1462 5.18202C19.1337 5.17652 19.1194 5.17202 19.1064 5.16777C18.1276 4.79865 17.1093 4.5442 16.0719 4.40952C16.0354 4.40402 15.9969 4.39952 15.9594 4.39427L15.8464 4.38127C15.7531 4.3707 15.6596 4.36128 15.5659 4.35302C15.4795 4.34479 15.393 4.33729 15.3064 4.33052C15.2729 4.32927 15.2389 4.32652 15.2054 4.32502C15.1319 4.31952 15.0557 4.31502 14.9824 4.31102L14.8642 4.30652V12.331C15.2769 12.3735 15.6872 12.462 16.0849 12.596L22.0187 6.69002C21.7986 6.53782 21.5744 6.39185 21.3464 6.25177Z" fill="#3B3B3B"/>
<path d="M14.045 4.30129C13.955 4.30254 13.8633 4.30254 13.773 4.30654C13.2035 4.32902 12.6359 4.38688 12.0735 4.47979C12.0605 4.48304 12.0485 4.48454 12.0353 4.48704C11.9563 4.50004 11.8788 4.51554 11.8003 4.52954L11.6663 4.55479C11.6193 4.56479 11.573 4.57279 11.528 4.58454C11.4376 4.60327 11.3473 4.62293 11.2573 4.64354C10.1287 4.90575 9.03796 5.31024 8.01128 5.84729C7.94503 5.88279 7.87878 5.92304 7.81253 5.95979C7.73353 6.00229 7.65453 6.04754 7.57453 6.09279C7.51678 6.12629 7.45703 6.15779 7.39803 6.19279H7.39678C7.39276 6.19566 7.38839 6.19801 7.38378 6.19979C7.36828 6.20979 7.35278 6.21654 7.33728 6.22654L7.33878 6.22804L7.47853 6.46054L11.4898 13.0875C11.5673 13.04 11.6478 12.9973 11.728 12.955C12.362 12.6144 13.0569 12.4022 13.773 12.3308C13.9543 12.3112 14.1365 12.3009 14.3188 12.2998V4.29529C14.227 4.29529 14.1365 4.29829 14.045 4.30129Z" fill="#929090"/>
<path d="M27.8316 17.0995L27.8188 16.8837C27.8158 16.8467 27.8146 16.8112 27.8116 16.7755L27.7906 16.5212C27.7878 16.5 27.7863 16.4777 27.7848 16.4562C27.7752 16.3618 27.7648 16.2675 27.7538 16.1732C27.7528 16.1647 27.7528 16.1577 27.7513 16.1507C27.7513 16.1465 27.7513 16.1435 27.7498 16.1392C27.7373 16.0382 27.7248 15.9365 27.7088 15.835C27.7088 15.8307 27.7088 15.8277 27.7076 15.825C27.6152 15.1847 27.4762 14.552 27.2916 13.932C27.2615 13.8317 27.2305 13.7317 27.1986 13.632C27.1946 13.6192 27.1903 13.6065 27.1878 13.594C27.1578 13.5065 27.1296 13.4207 27.0986 13.3345C27.0903 13.312 27.0831 13.288 27.0748 13.2642C27.0353 13.1542 26.9945 13.0447 26.9523 12.9357C26.9278 12.8737 26.9041 12.8117 26.8798 12.751C26.8606 12.7017 26.8406 12.6535 26.8211 12.6057C26.8011 12.5582 26.7801 12.5115 26.7606 12.4632L26.6801 12.2815L26.6336 12.179C26.6011 12.1065 26.5656 12.0337 26.5321 11.9615C26.5206 11.9407 26.5108 11.9182 26.5011 11.8965C26.4603 11.8135 26.4191 11.732 26.3786 11.6502C26.3726 11.639 26.3673 11.6277 26.3603 11.6162C26.3133 11.5262 26.2668 11.4357 26.2178 11.347L26.2136 11.3387C25.9799 10.9104 25.7229 10.4953 25.4438 10.0952L19.5081 16.0027C19.6424 16.3966 19.7314 16.8046 19.7733 17.2187H27.8358L27.8316 17.0995Z" fill="#3B3B3B"/>
<path d="M19.8048 17.76C19.8048 17.852 19.796 17.9425 19.7918 18.0325C19.7875 18.1225 19.786 18.214 19.7763 18.3043C19.6707 19.3748 19.2486 20.3897 18.5638 21.2193C18.5063 21.2883 18.443 21.3548 18.381 21.4208C18.3203 21.4885 18.2625 21.5578 18.1975 21.6225L23.885 27.2825C23.95 27.2175 24.01 27.1515 24.0738 27.0865C24.1358 27.0205 24.2008 26.9555 24.2613 26.889C24.6777 26.4425 25.0629 25.9678 25.4143 25.4685C25.4285 25.4485 25.441 25.4288 25.4538 25.411C25.4963 25.3503 25.5383 25.288 25.579 25.2275C25.616 25.1725 25.6523 25.1193 25.6873 25.064C25.7048 25.0373 25.7215 25.009 25.7385 24.9835C27.0181 22.9823 27.7415 20.6763 27.8343 18.3028C27.8385 18.2128 27.84 18.1223 27.843 18.0323C27.844 17.942 27.847 17.8518 27.847 17.76H19.8048Z" fill="#929090"/>
<path d="M30.2362 1.91752C28.7645 0.453273 26.3797 0.453273 24.9082 1.91752C23.7342 3.08502 23.5 4.83127 24.1992 6.23352L15.9917 14.4025C14.5825 13.708 12.8272 13.9408 11.6532 15.109C10.1817 16.5738 10.1832 18.9483 11.6532 20.4133C13.126 21.8775 15.5112 21.876 16.9827 20.4133C17.5397 19.8594 17.9079 19.1442 18.0352 18.3691C18.1625 17.5941 18.0423 16.7986 17.6917 16.0958L25.8992 7.92652C27.3085 8.62277 29.0617 8.38852 30.2362 7.22027C30.586 6.87297 30.8636 6.4599 31.053 6.00486C31.2424 5.54982 31.3399 5.06179 31.3399 4.5689C31.3399 4.076 31.2424 3.58798 31.053 3.13294C30.8636 2.67789 30.586 2.26483 30.2362 1.91752Z" fill="#3F3F42"/>
</g>
<defs>
<clipPath id="clip0_6061_478">
<rect width="32" height="32" fill="white"/>
</clipPath>
</defs>
</svg>
