<svg width="32" height="32" viewBox="0 0 32 32" fill="none" xmlns="http://www.w3.org/2000/svg">
<g clip-path="url(#clip0_6061_472)">
<rect width="32" height="32" fill="#1F1F1F"/>
<path d="M-0.000488281 0V32H31.9995V3.63588e-06L-0.000488281 0ZM27.2275 4.364C24.7461 9.28933 22.8275 14.5333 19.6621 19.092C18.2435 21.1907 16.5568 23.3093 14.1155 24.2387C12.3688 24.9747 10.2008 24.688 8.80879 23.376C7.97145 22.6787 8.08879 21.4693 8.57812 20.6093C9.85812 18.9773 11.6981 17.916 13.3648 16.7227C18.4875 13.2227 23.2928 9.18533 27.2275 4.364ZM24.9701 6.03067C21.6328 9.69867 17.7955 12.9107 13.7008 15.7227L13.6968 15.7253L13.6928 15.7293C11.9235 17.0347 9.91279 18.1613 8.36879 19.8813C7.90345 20.3253 7.59146 21.2707 7.65279 21.856C6.82346 20.4653 6.58612 18.3707 7.31012 16.8693C8.01146 15.2827 9.63279 14.46 11.1448 13.8133C16.1541 12.0093 20.0715 9.912 24.9701 6.032V6.03067Z" fill="#D3CFBA"/>
</g>
<defs>
<clipPath id="clip0_6061_472">
<rect width="32" height="32" fill="white"/>
</clipPath>
</defs>
</svg>
